<?xml version="1.0" encoding="UTF-8"?>
<!DOCTYPE svg PUBLIC "-//W3C//DTD SVG 1.1//EN" "http://www.w3.org/Graphics/SVG/1.1/DTD/svg11.dtd">
<!-- Creator: CorelDRAW 2018 -->
<svg xmlns="http://www.w3.org/2000/svg" xml:space="preserve" width="210mm" height="297mm" version="1.1" style="shape-rendering:geometricPrecision; text-rendering:geometricPrecision; image-rendering:optimizeQuality; fill-rule:evenodd; clip-rule:evenodd"
viewBox="0 0 21000 29700"
 xmlns:xlink="http://www.w3.org/1999/xlink">
 <defs>
  <style type="text/css">
   <![CDATA[
    .fil0 {fill:#0F33B8;fill-rule:nonzero}
    .fil5 {fill:#1A2125;fill-rule:nonzero}
    .fil6 {fill:#3D474B;fill-rule:nonzero}
    .fil8 {fill:#E0DCD8;fill-rule:nonzero}
    .fil1 {fill:#E72C61;fill-rule:nonzero}
    .fil3 {fill:#F0B291;fill-rule:nonzero}
    .fil7 {fill:#F5F3EF;fill-rule:nonzero}
    .fil4 {fill:#F9C7A7;fill-rule:nonzero}
    .fil2 {fill:#FC3867;fill-rule:nonzero}
    .fil9 {fill:#FFDE40;fill-rule:nonzero}
   ]]>
  </style>
 </defs>
 <g id="Layer_x0020_1">
  <metadata id="CorelCorpID_0Corel-Layer"/>
  <path class="fil0" d="M18060.98 12872.99c0,4091.5 -3316.81,7408.38 -7408.31,7408.38 -1092.84,0 -2129.96,-236.39 -3063.76,-660.94 -344.68,-157.01 -675.22,-339.29 -989.45,-544.95 -13.58,-9.1 -27.16,-17.78 -40.81,-26.88 -99.4,-65.87 -197.05,-134.33 -293.02,-205.03 -114.87,-84.7 -227.29,-172.69 -337.12,-264.04 -1639.82,-1358.56 -2684.15,-3410.47 -2684.15,-5706.54 0,-4091.49 3316.67,-7408.3 7408.31,-7408.3 4091.5,0 7408.31,3316.81 7408.31,7408.3z"/>
  <path class="fil1" d="M14356.86 18464.24l0 851.41c-1067.15,614.67 -2301.18,965.72 -3615.99,965.72 -775.04,0 -1521.66,-122.01 -2222.92,-347.97 -488.32,-157.22 -954.8,-365.33 -1393.07,-617.75l0 -851.41c0,-1452.92 1102.15,-2644.95 2504.53,-2759.89 73.71,-6.16 147.98,-9.1 223.23,-9.1l1776.11 0c210.14,0 414.33,23.66 610.61,69.3 1212.75,281.61 2117.5,1383.62 2117.5,2699.69z"/>
  <path class="fil2" d="M14356.86 18464.24l0 851.41c-1063.86,614.67 -2294.04,965.72 -3604.79,965.72 -772.66,0 -1516.97,-122.01 -2216.06,-347.97l0 -1469.16c0,-1529.22 1217.65,-2768.99 2719.57,-2768.99l381.64 0c1502.27,0 2719.64,1239.77 2719.64,2768.99z"/>
  <polygon class="fil1" points="10493.98,16492.13 10988.81,16492.13 10988.81,18498.82 10493.98,18498.82 "/>
  <polygon class="fil1" points="10741.08,16918.01 9473.45,17622.84 9087.75,15828.25 9875.46,15364.15 "/>
  <polygon class="fil1" points="10741.08,16918.01 12008.78,17622.84 12394.41,15828.25 11606.77,15364.15 "/>
  <path class="fil3" d="M11711 14636.92l0 1166.41c0,427 -287.42,787.92 -683.2,907.83 -90.58,27.51 -187.25,42.42 -287.07,42.42 -535.71,0 -969.99,-425.46 -969.99,-950.25l0 -1166.41 1940.26 0z"/>
  <path class="fil4" d="M11711 15695.25l0 79.66c0,460.32 -298.48,849.38 -709.59,978.67 -371.07,-116.06 -649.95,-444.01 -701.54,-845.32 67.41,4.13 135.03,6.3 203,6.3 190.68,0 377.58,-15.4 559.65,-45.71 224.21,-36.82 441.07,-95.41 648.48,-173.6z"/>
  <path class="fil4" d="M8006.81 12696.66c0,439.04 -320.74,803.04 -740.67,870.52 -45.92,7.49 -93.1,11.41 -141.33,11.41 -487.2,0 -881.86,-394.8 -881.86,-881.93 0,-487.2 394.66,-882 881.86,-882 48.23,0 95.41,3.99 141.33,11.41 419.93,67.48 740.67,431.55 740.67,870.59z"/>
  <path class="fil3" d="M8006.81 12696.66c0,444.71 -329.77,813.54 -761.6,881.93 -78.47,-280.98 -120.33,-576.8 -120.33,-881.93 0,-305.2 41.86,-601.02 120.33,-882 431.83,68.39 761.6,437.22 761.6,882z"/>
  <path class="fil3" d="M7477.68 12696.73c0,194.67 -157.92,352.66 -352.8,352.66 -194.88,0 -352.8,-157.99 -352.8,-352.66 0,-194.88 157.92,-352.87 352.8,-352.87 194.88,0 352.8,157.99 352.8,352.87z"/>
  <path class="fil4" d="M13298.53 12696.66c0,439.04 320.74,803.04 740.67,870.52 45.92,7.49 93.1,11.41 141.26,11.41 487.27,0 881.93,-394.8 881.93,-881.93 0,-487.2 -394.66,-882 -881.93,-882 -48.16,0 -95.34,3.99 -141.26,11.41 -419.93,67.48 -740.67,431.55 -740.67,870.59z"/>
  <path class="fil3" d="M13298.53 12696.66c0,444.71 329.77,813.54 761.6,881.93 78.4,-280.98 120.33,-576.8 120.33,-881.93 0,-305.2 -41.86,-601.02 -120.33,-882 -431.83,68.39 -761.6,437.22 -761.6,882z"/>
  <path class="fil3" d="M14004.06 10989.57l0 1297.73c0,1695.96 -1218.28,3102.82 -2813.58,3363.99 -5.32,0.91 -11.06,1.82 -16.38,2.73 -169.68,27.58 -343.84,41.23 -521.57,41.23 -1850.8,0 -3351.25,-1525.79 -3351.25,-3407.95l0 -1297.73c0,-396.27 66.57,-777.07 189.35,-1131.06 458.36,-1326.21 1701.14,-2277.16 3161.9,-2277.16l0.35 0c177.38,0 351.89,14 521.78,41.23 1603.07,254.8 2829.4,1665.29 2829.4,3366.99z"/>
  <path class="fil3" d="M14533.26 12696.73c0,194.67 -157.92,352.66 -352.73,352.66 -194.88,0 -352.87,-157.99 -352.87,-352.66 0,-194.88 157.99,-352.87 352.87,-352.87 194.81,0 352.73,157.99 352.73,352.87z"/>
  <path class="fil4" d="M14004.06 10909l0 1282.54c0,1676.15 -1215.13,3066.56 -2806.3,3324.65 -5.32,0.84 -10.99,1.75 -16.38,2.66 -1598.8,-251.79 -2821.77,-1645.77 -2821.77,-3327.31l0 -1282.54c0,-1681.82 1223.18,-3075.86 2822.33,-3327.65 1598.94,251.79 2822.12,1645.83 2822.12,3327.65z"/>
  <path class="fil5" d="M14107.45 8816.08l-6733.16 0c-349.3,-714.7 520.17,-2293.06 3366.44,-2293.06 319.13,0 613.41,20.02 883.89,56.35 2142.21,286.79 2792.93,1602.09 2482.83,2236.71z"/>
  <path class="fil6" d="M14107.45 8816.08l-4969.23 0c-310.38,-650.58 340.55,-1998.99 2484.44,-2293.06 2143.89,294.07 2795.1,1642.48 2484.79,2293.06z"/>
  <path class="fil5" d="M8006.81 9521.67l0 1784.09 -705.53 508.9 0 -860.37c0,-406.14 62.02,-796.46 176.33,-1159.2l529.2 -273.42z"/>
  <path class="fil6" d="M13298.53 9521.67l0 1784.09 705.53 508.9 0 -860.37c0,-406.14 -61.95,-796.46 -176.4,-1159.2l-529.13 -273.42z"/>
  <path class="fil7" d="M14004.06 8782.97l0 1444.23c-1537.13,-642.39 -3210.41,-824.39 -4824.89,-546.35 -147,25.27 -293.51,54.11 -439.39,87.29 -488.46,110.11 -969.57,263.27 -1438.5,459.06l0 -1444.23c468.93,-195.86 950.04,-349.02 1438.5,-459.2 145.88,-33.11 292.39,-61.95 439.39,-87.22 1614.48,-278.04 3287.76,-96.04 4824.89,546.42z"/>
  <path class="fil3" d="M8359.61 18517.44l0 1411.13c-494.41,-151.06 -966.7,-348.46 -1411.13,-586.67l0 -824.46 1411.13 0z"/>
  <path class="fil4" d="M14356.86 18517.44l0 824.46c-444.57,238.21 -916.79,435.61 -1411.13,586.67l0 -1411.13 1411.13 0z"/>
  <path class="fil8" d="M8712.41 8286.95l0 1472.23c-479.22,112.28 -951.16,268.45 -1411.13,468.02l0 -1472.16c459.97,-199.71 931.91,-355.88 1411.13,-468.09z"/>
  <path class="fil6" d="M11358.2 8141.91c891.31,0 1562.82,1423.79 891.31,2085.29 0,0 1653.26,-527.24 1119.16,-2116.65l-2010.47 31.36z"/>
  <path class="fil7" d="M8257.48 11833.63l-805.21 93.03 -65.1 -556.43 797.44 -92.12c50.12,-5.88 86.1,-51.03 80.36,-100.87 -5.88,-49.84 -51.31,-85.54 -101.5,-79.87l-797.37 92.33 -65.24 -556.43 805.21 -93.1c50.19,-5.81 86.1,-51.03 80.36,-100.87 -5.88,-49.84 -51.31,-85.68 -101.5,-79.87l-805.21 93.1 -65.17 -556.36 535.92 -62.02c50.19,-5.81 86.1,-50.89 80.36,-100.8 -5.81,-49.84 -51.31,-85.54 -101.5,-79.8l-535.92 62.02 -60.06 -512.68 106.54 -12.46c50.33,-5.81 86.24,-50.82 80.36,-100.72 -5.81,-49.91 -51.31,-85.61 -101.5,-79.8l-106.54 12.32 -30.73 -262.15c-5.88,-49.98 -51.24,-85.68 -101.43,-79.87 -50.26,5.81 -86.17,50.89 -80.36,100.87l30.66 262.08 -559.93 64.82 -87.36 -745.29c-5.88,-49.98 -51.24,-85.68 -101.5,-79.87 -50.19,5.81 -86.1,50.82 -80.29,100.87l87.29 745.29 -560.07 64.67 -117.46 -1002.67c-5.88,-49.84 -51.31,-85.54 -101.5,-79.87 -50.19,5.88 -86.1,51.03 -80.29,100.87l117.39 1002.81 -559.93 64.68 -87.43 -745.35c-5.81,-49.84 -51.17,-85.54 -101.36,-79.87 -50.26,5.81 -86.24,51.03 -80.36,100.8l87.22 745.35 -560 64.82 -30.66 -262.21c-5.88,-49.91 -51.38,-85.61 -101.5,-79.8 -50.19,5.88 -86.24,50.89 -80.36,100.87l30.73 262.14 -106.68 12.32c-50.12,5.81 -86.1,50.96 -80.22,100.8 5.81,49.91 51.17,85.68 101.5,79.87l106.54 -12.32 60.06 512.68 -535.99 61.88c-50.19,5.88 -86.1,51.03 -80.22,100.87 5.81,49.84 51.17,85.54 101.5,79.87l535.85 -61.95 65.17 556.29 -805.21 93.1c-50.12,5.81 -86.1,50.96 -80.36,100.87 5.88,49.91 51.31,85.61 101.5,79.8l805.21 -93.1 65.1 556.5 -797.37 92.12c-50.19,5.81 -86.1,50.89 -80.36,100.87 5.81,49.84 51.31,85.54 101.5,79.73l797.37 -92.19 65.17 556.43 -805.14 93.1c-50.19,5.81 -86.17,50.96 -80.29,100.87 5.88,49.84 51.24,85.54 101.5,79.8l805.07 -93.03 65.24 556.29 -535.99 61.95c-50.12,5.81 -86.1,50.96 -80.22,100.8 5.88,49.91 51.17,85.68 101.5,79.87l535.85 -61.95 59.99 512.68 -106.54 12.32c-50.26,5.81 -86.17,50.96 -80.36,100.8 5.88,49.98 51.31,85.68 101.5,79.87l106.54 -12.32 30.8 262.15c5.81,49.84 51.17,85.54 101.36,79.8 50.26,-5.81 86.24,-50.96 80.36,-100.8l-30.66 -262.15 560.07 -64.75 87.29 745.29c5.81,49.84 51.31,85.54 101.5,79.87 50.12,-5.81 86.1,-51.03 80.22,-100.87l-87.22 -745.29 560.07 -64.82 117.39 1002.82c5.88,49.84 51.38,85.54 101.5,79.73 50.19,-5.81 86.17,-50.89 80.29,-100.73l-117.46 -1002.82 560.21 -64.68 87.22 745.36c5.88,49.84 51.24,85.54 101.5,79.73 50.19,-5.81 86.1,-50.89 80.29,-100.87l-87.29 -745.29 560.07 -64.68 30.66 262.08c5.81,49.91 51.31,85.61 101.5,79.87 50.19,-5.81 86.24,-50.96 80.36,-100.8l-30.8 -262.15 106.68 -12.32c50.19,-5.81 86.1,-50.96 80.29,-100.87 -5.88,-49.91 -51.24,-85.61 -101.5,-79.8l-106.54 12.32 -60.06 -512.68 535.92 -62.02c50.19,-5.81 86.24,-50.89 80.36,-100.73 -5.81,-49.98 -51.31,-85.68 -101.5,-79.87l-535.92 61.95 -65.1 -556.43 805.21 -93.1c50.12,-5.81 86.1,-50.89 80.22,-100.8 -5.88,-49.84 -51.31,-85.61 -101.5,-79.73zm-986.93 114.03l-560.07 64.82 -65.24 -556.43 560.07 -64.82 65.24 556.43zm-1474.55 -1323.56l-65.24 -556.43 560.07 -64.82 65.24 556.43 -560.07 64.82zm581.21 115.92l65.17 556.29 -560.07 64.82 -65.17 -556.43 560.07 -64.68zm-763.07 -94.92l-559.93 64.68 -65.24 -556.36 560.07 -64.75 65.1 556.43zm21.21 180.6l65.1 556.36 -559.93 64.82 -65.24 -556.43 560.07 -64.75zm86.38 737.1l65.1 556.43 -560.07 64.68 -65.1 -556.43 560.07 -64.68zm86.17 737.03l65.24 556.43 -560.07 64.68 -65.1 -556.36 559.93 -64.75zm181.93 -21l560 -64.82 65.1 556.43 -560 64.82 -65.1 -556.43zm-21.14 -180.67l-65.24 -556.36 560.07 -64.75 65.24 556.43 -560.07 64.68zm1215.55 -887.46l-560.07 64.61 -65.1 -556.29 559.93 -64.82 65.24 556.5zm-86.38 -737.17l-560.07 64.82 -65.1 -556.43 560.07 -64.75 65.1 556.36zm-146.37 -1249.64l60.06 512.61 -560.07 64.82 -59.92 -512.75 559.93 -64.68zm-741.79 85.68l59.99 512.75 -560.07 64.68 -59.99 -512.68 560.07 -64.75zm-741.86 85.75l60.06 512.75 -560.07 64.68 -60.06 -512.61 560.07 -64.82zm-1302 150.57l560.07 -64.75 60.06 512.75 -560.07 64.68 -60.06 -512.68zm81.34 693.35l560 -64.82 65.17 556.43 -560.07 64.68 -65.1 -556.29zm86.31 737.03l560.07 -64.82 65.1 556.43 -560.07 64.82 -65.1 -556.43zm86.24 736.96l560.07 -64.68 65.17 556.43 -560.07 64.68 -65.17 -556.43zm86.31 737.17l560.07 -64.82 65.24 556.43 -560.07 64.68 -65.24 -556.29zm146.44 1249.64l-60.06 -512.61 560.07 -64.82 59.99 512.75 -560 64.68zm741.86 -85.68l-59.99 -512.75 559.93 -64.68 60.06 512.61 -560 64.82zm741.86 -85.75l-60.06 -512.75 560.07 -64.68 60.06 512.61 -560.07 64.82zm1301.86 -150.64l-560.07 64.82 -60.06 -512.75 560.07 -64.68 60.06 512.61zm-81.2 -693.28l-560 64.75 -65.24 -556.43 560.07 -64.68 65.17 556.36z"/>
  <path class="fil9" d="M7823.97 9389.16c-104.79,-156.17 -219.87,-302.32 -344.61,-436.51 -573.65,-616.98 -1281.91,-911.19 -1994.72,-828.38 -712.88,82.67 -1334.48,530.95 -1750.42,1262.65 -99.4,175.07 -184.24,361.62 -254.1,557.2 -211.82,593.39 -284.2,1268.96 -203.84,1956.64 106.82,913.99 470.47,1745.66 1024.66,2341.78 237.37,255.36 497.77,455.14 772.1,595.98l100.66 101.5c584.57,589.68 969.92,1366.61 1085.14,2187.43l26.67 191.66c12.25,87.36 92.4,149.1 180.32,138.95l214.13 -24.85c43.96,-5.11 83.86,-27.72 110.81,-62.72 26.81,-35.14 38.15,-79.38 31.57,-122.99 -138.81,-913.99 54.11,-1843.94 543.2,-2627.73 262.08,-207.48 492.38,-480.41 680.54,-811.65 402.08,-707 564.76,-1599.71 457.94,-2513.84 -82.6,-708.19 -319.83,-1367.1 -680.05,-1905.12zm-1368.29 7108.57c-152.67,-523.32 -407.75,-1015.84 -746.83,-1443.47 0.21,0 0.56,0.14 0.77,0.14 193.13,33.32 389.55,39.27 586.11,16.52 183.82,-21.42 361.9,-67.13 531.72,-135.87 0.21,-0.14 0.42,-0.21 0.7,-0.21 -224.07,492.8 -350.63,1023.26 -372.47,1562.89zm1572.9 -5049.38c17.57,188.3 22.68,375.06 15.12,558.18 -2.45,61.46 -6.37,122.64 -11.83,182.98 -16.73,196.14 -48.16,387.17 -93.87,570.85 -15.47,63.42 -32.83,126.14 -51.94,187.81 -53.62,174.72 -120.75,341.95 -200.83,499.38 -7.07,14.14 -14.42,28.28 -21.84,42.21 -13.86,26.32 -27.93,52.36 -42.56,77.91 -22.75,40.11 -46.27,79.1 -70.35,116.9 -5.67,8.82 -11.27,17.43 -16.8,26.04 -144.55,221.2 -312.48,404.67 -497.84,546.07 -54.81,42.14 -111.16,80.29 -169.05,114.73 -168.77,100.59 -349.37,168.98 -538.09,202.02 -29.68,5.46 -59.43,9.73 -89.67,13.23 -30.17,3.57 -60.06,6.16 -90.16,7.63 -191.45,10.99 -382.9,-14.28 -570.22,-73.64 -64.47,-20.16 -128.1,-44.38 -191.03,-72.59 -213.01,-95.34 -418.74,-235.62 -610.4,-417.97 -7.28,-7 -14.77,-14.07 -22.05,-21.28 -32.13,-31.36 -64.05,-63.77 -95.41,-97.65 -20.16,-21.63 -39.9,-43.68 -59.43,-66.15 -10.57,-11.97 -21.07,-24.08 -31.29,-36.4 -114.17,-134.82 -217.91,-282.1 -310.38,-439.88 -32.9,-55.51 -64.19,-112.77 -93.94,-170.73 -86.66,-168.56 -161.21,-347.27 -222.81,-534.24 -19.39,-57.61 -37.03,-116.27 -53.62,-175.42 -49.49,-176.54 -87.71,-359.31 -113.61,-546.7 -4.62,-32.27 -8.82,-64.82 -12.74,-97.44 -3.15,-27.16 -6.09,-54.67 -8.47,-81.83 -18.55,-188.23 -24.08,-374.64 -17.29,-557.76 2.17,-61.46 5.81,-122.64 10.78,-183.12 16.17,-195.58 46.69,-386.61 91,-570.5 15.47,-63.42 32.48,-125.93 51.24,-187.67 54.53,-180.74 123.2,-353.57 205.87,-515.83 4.13,-8.47 8.54,-17.01 13.09,-25.41 16.45,-32.13 33.6,-63.63 51.31,-94.85 14.35,-25.13 28.91,-49.7 43.89,-73.85 5.25,-8.96 10.43,-17.57 15.89,-25.97 9.1,-14.7 18.2,-28.84 27.37,-43.12 144.76,-221.27 312.55,-404.73 497.98,-546.27 54.74,-41.93 111.09,-80.08 168.91,-114.45 168.84,-100.59 349.51,-168.98 538.09,-202.16 29.75,-5.39 59.57,-9.66 89.67,-13.16 30.17,-3.5 60.2,-6.09 90.3,-7.56 191.31,-10.99 382.97,14 570.36,73.5 64.19,20.23 127.89,44.45 190.75,72.8 213.08,95.2 418.88,235.55 610.54,417.82 10.08,9.66 20.09,19.39 29.96,29.26 2.17,1.89 4.34,4.2 6.51,6.3 27.23,26.74 54.04,54.74 80.85,83.37 24.57,26.39 48.44,53.13 71.96,80.64 6.37,7.14 12.74,14.49 18.83,21.98 117.6,139.09 224.28,291.34 319.13,454.79 32.41,55.72 63.42,112.7 92.82,170.8 85.68,168.7 159.39,347.55 220.29,534.38 18.9,57.75 36.47,116.41 52.85,175.56 48.72,176.75 86.03,359.59 111.58,546.91 3.71,27.23 7.28,54.6 10.43,81.9 3.78,32.76 7.28,65.1 10.15,97.65z"/>
  <path class="fil6" d="M7124.88 18968.73c-7,1.47 -13.93,2.87 -21.14,4.06 -110.67,20.86 -222.18,37.73 -334.39,50.96 -60.13,7.28 -120.61,13.44 -181.02,18.48 -19.04,1.47 -38.08,3.22 -57.47,4.41 -99.4,-63.84 -196.98,-130.13 -292.88,-198.52l-169.54 -1412.39c-13.02,-106.05 41.72,-204.68 130.55,-255.92 31.71,-18.55 68.11,-30.8 107.03,-35.21l322.84 -36.54c36.89,-4.13 73.15,-0.63 106.61,8.82 101.57,28.42 180.88,113.54 193.9,221.55l61.6 513.73 133.91 1116.57z"/>
  <path class="fil3" d="M7613.9 19575.84c-357.49,-163.94 -700.35,-354.2 -1026.27,-568.96 -241.78,-159.46 -474.18,-332.08 -695.87,-517.72 -25.13,-399.35 249.69,-764.33 650.44,-839.79 103.46,-19.46 206.08,-17.92 303.31,1.68 106.96,21.14 207.27,64.12 295.75,125.37 168.7,116.48 293.58,297.29 334.39,515.83l164.57 883.26c25.76,138.6 14.77,275.31 -26.32,400.33z"/>
  <path class="fil4" d="M7618.03 19575.84c-321.02,-150.22 -628.81,-324.59 -921.48,-521.43l-88.41 -484.19c-55.65,-304.99 80.01,-601.3 319.97,-758.31 95.97,19.39 186.06,58.73 265.51,114.87 151.48,106.75 263.62,272.44 300.23,472.71l147.77 809.48c23.1,126.98 13.3,252.28 -23.59,366.87z"/>
 </g>
</svg>
