<?xml version="1.0" encoding="utf-8"?>
<!-- Generator: Adobe Illustrator 16.0.0, SVG Export Plug-In . SVG Version: 6.00 Build 0)  -->
<!DOCTYPE svg PUBLIC "-//W3C//DTD SVG 1.1//EN" "http://www.w3.org/Graphics/SVG/1.1/DTD/svg11.dtd">
<svg version="1.1" id="Layer_1" xmlns="http://www.w3.org/2000/svg" xmlns:xlink="http://www.w3.org/1999/xlink" x="0px" y="0px"
	 width="73.469px" height="49.688px" viewBox="0 0 73.469 49.688" enable-background="new 0 0 73.469 49.688" xml:space="preserve">
<g>
	<g>
		<path fill-rule="evenodd" clip-rule="evenodd" fill="#2E489C" d="M20.423,48.793h32.625c0.158-4.354,0.088-9.218,0.019-13.596
			c-0.069-4.326-5.339-6.162-7.727-6.062c-0.264,0.525-3.099,3.373-3.779,4.136c-1.207,1.354-2.53,2.862-3.834,4.154
			c1.206,0.832,0.489,0.758,0.906,1.799c0.245,0.609,0.88,0.477,0.945,1.981c0.079,1.838-0.001,3.836,0.004,5.693l-1.362,0.05
			l0-2.498c-1.584-0.503-2.83-0.995-3.318-2.493c-0.605-1.861,0.88-2.325,1.047-2.987c0.112-0.444,0.138-0.938,0.271-1.375
			c-0.885-0.536-7.224-8.412-7.876-8.574c-0.363,0.008-1.136,0.102-1.492,0.177l-2.683,0.929c-1.871,0.973-3.733,2.06-3.752,4.92
			C20.385,39.616,20.394,44.223,20.423,48.793"/>
		<path fill-rule="evenodd" clip-rule="evenodd" fill="#2E489C" d="M31.29,4.943h-1.248L29.5,5.216
			c-3.086,1.281-1.684,4.462-2.011,10.089c-2.358-0.41-2.405,0.451-1.985,2.654c0.282,1.479,0.806,2.698,2.288,2.851
			c0,4.468-0.35,2.995,1.086,4.663c0.606,0.705,1.524,1.063,2.514,1.492c1.519,0.66,3.369,0.877,5.075,0.879
			c3.131,0.004,6.195-0.737,8.146-2.711c0.098-0.1,0.086-0.075,0.211-0.231c0.019-0.022,0.186-0.268,0.232-0.346
			c0.54-0.893,0.301-2.547,0.294-3.728c2.754-0.408,2.721-5.137,2.013-5.571c-0.979-0.238-0.797-0.037-1.643-0.012
			c-0.286-4.857,1.486-7.735-3.993-8.204c-3.91-0.334-0.586,0.666-5.389-0.783c-0.875-0.265-1.599-0.473-2.452-0.681l-2.227-0.473
			C31.379,5.011,31.458,5.055,31.29,4.943"/>
		<path fill-rule="evenodd" clip-rule="evenodd" fill="#2E489C" d="M36.766,37.046l7.445-7.911l-14.423-0.043l3.452,3.983
			C34.419,34.462,35.601,35.69,36.766,37.046"/>
	</g>
	<ellipse fill-rule="evenodd" clip-rule="evenodd" fill="#2E489C" cx="37.104" cy="38.402" rx="0.621" ry="0.603"/>
</g>
<g>
	
		<rect x="0.757" y="0.761" fill="none" stroke="#2E469D" stroke-width="1.5" stroke-miterlimit="2.6131" width="72.026" height="48.214"/>
</g>
</svg>
