<?xml version="1.0" encoding="UTF-8"?>
<!DOCTYPE svg PUBLIC "-//W3C//DTD SVG 1.1//EN" "http://www.w3.org/Graphics/SVG/1.1/DTD/svg11.dtd">
<!-- Creator: CorelDRAW 2018 -->
<svg xmlns="http://www.w3.org/2000/svg" xml:space="preserve" width="210mm" height="297mm" version="1.1" style="shape-rendering:geometricPrecision; text-rendering:geometricPrecision; image-rendering:optimizeQuality; fill-rule:evenodd; clip-rule:evenodd"
viewBox="0 0 21000 29700"
 xmlns:xlink="http://www.w3.org/1999/xlink">
 <defs>
  <style type="text/css">
   <![CDATA[
    .fil0 {fill:#0F33B8;fill-rule:nonzero}
    .fil4 {fill:#114BC5;fill-rule:nonzero}
    .fil3 {fill:#ECCCE3;fill-rule:nonzero}
    .fil2 {fill:#F6CA09;fill-rule:nonzero}
    .fil1 {fill:#FEDA49;fill-rule:nonzero}
   ]]>
  </style>
 </defs>
 <g id="Layer_x0020_1">
  <metadata id="CorelCorpID_0Corel-Layer"/>
  <g id="_1166660640">
   <path class="fil0" d="M6020.04 21127.84l1294.26 0 0 -92.22 -1196.22 0 0 -942.57 925.27 0 0 -89.36 -925.27 0 0 -856.13 1167.38 0 0 -92.22 -1265.42 0 0 2072.5zm1977.37 0l103.81 0 576.49 -1496 -95.13 0 -533.27 1389.34 -513.06 -1389.34 -95.13 0 556.29 1496zm1844.83 -89.36c82.61,-65.31 143.14,-148.9 181.58,-250.79l-74.97 -40.31c-86.45,226.73 -250.73,340.09 -492.9,340.09 -174.88,0 -311.32,-71.07 -409.3,-213.27 -86.46,-122.98 -129.74,-276.72 -129.74,-461.21l0 -23.07 1167.44 0 0 -54.76c0,-217.12 -49.98,-390.08 -149.89,-518.83 -109.52,-144.12 -269.02,-216.18 -478.51,-216.18 -213.27,0 -375.69,80.68 -487.13,242.11 -97.99,138.36 -146.98,319.01 -146.98,541.89 0,222.95 48.99,404.53 146.98,544.81 111.44,157.58 273.86,236.34 487.13,236.34 149.89,0 278.64,-42.24 386.29,-126.82zm-922.42 -732.16c11.54,-178.72 60.53,-324.77 146.98,-438.14 98.05,-124.9 233.49,-187.35 406.45,-187.35 167.2,0 296.93,64.38 389.15,193.12 82.61,113.37 123.97,257.49 123.97,432.37l-1066.55 0zm1484.47 821.52l92.22 0 0 -801.3c0,-57.67 1.49,-108.1 4.34,-151.38 2.91,-43.22 6.26,-79.26 10.11,-108.09 46.14,-255.57 210.42,-383.33 492.9,-383.33 153.73,0 264.24,43.23 331.47,129.68 57.67,74.98 86.51,192.19 86.51,351.69l0 962.73 92.22 0 0 -991.56c0,-357.46 -171.04,-536.13 -513.11,-536.13 -242.11,0 -410.24,92.22 -504.44,276.71l0 -245.02 -92.22 0 0 1496zm1510.45 0l89.31 0 0 -1496 -89.31 0 0 1496zm-17.3 -1960.06c0,92.22 20.16,138.35 60.53,138.35 42.24,0 63.38,-46.13 63.38,-138.35 0,-90.36 -21.14,-135.51 -63.38,-135.51 -40.37,0 -60.53,45.15 -60.53,135.51zm513.06 1960.06l92.22 0 0 -801.3c0,-57.67 1.48,-108.1 4.34,-151.38 2.91,-43.22 6.26,-79.26 10.1,-108.09 46.14,-255.57 210.42,-383.33 492.9,-383.33 153.74,0 264.25,43.23 331.48,129.68 57.67,74.98 86.51,192.19 86.51,351.69l0 962.73 92.22 0 0 -991.56c0,-357.46 -171.04,-536.13 -513.12,-536.13 -242.11,0 -410.24,92.22 -504.43,276.71l0 -245.02 -92.22 0 0 1496zm2660.53 -319.94l0 152.75c0,209.49 -22.08,353.61 -66.3,432.37 -94.14,169.12 -266.16,253.65 -515.96,253.65 -134.52,0 -245.03,-25.93 -331.48,-77.83 -99.91,-59.54 -154.72,-153.68 -164.28,-282.48l-86.51 0c3.85,149.89 62.45,263.31 175.82,340.15 101.88,67.28 229.64,100.9 383.38,100.9 280.56,0 480.43,-86.51 599.56,-259.41 63.44,-92.28 95.13,-232.56 95.13,-420.84l0 -1415.32 -89.36 0 0 334.39c-44.22,-121.11 -117.21,-212.35 -219.04,-273.86 -101.89,-61.52 -217.18,-92.22 -345.92,-92.22 -220.97,0 -389.15,77.83 -504.44,233.43 -103.75,138.41 -155.66,321.92 -155.66,550.57 0,224.87 50.92,408.37 152.81,550.58 115.28,155.65 282.48,233.48 501.52,233.48 276.71,0 466.98,-120.12 570.73,-360.31zm0 -423.75c0,201.8 -43.23,364.16 -129.73,487.14 -97.99,144.12 -243.05,216.18 -435.23,216.18 -192.19,0 -338.23,-72.06 -438.14,-216.18 -86.46,-122.98 -129.74,-285.34 -129.74,-487.14 0,-201.74 44.22,-364.15 132.65,-487.13 97.98,-144.12 243.04,-216.19 435.23,-216.19 192.18,0 337.24,72.07 435.23,216.19 86.5,124.9 129.73,287.31 129.73,487.13z"/>
   <path class="fil0" d="M4320.81 23318.54c13.84,139.9 60.75,249.03 140.66,327.47 84.59,81.45 195.26,122.21 332.08,122.21 78.38,0 148.74,-12.31 210.97,-36.91 62.29,-24.61 115.34,-59.21 159.12,-103.76 43.83,-44.6 77.66,-98.81 101.5,-162.58 23.84,-63.82 35.7,-134.89 35.7,-213.33 0,-150.66 -43,-272.87 -129.13,-366.62 -87.6,-95.35 -206.73,-142.97 -357.4,-142.97 -153.73,0 -275.17,43.77 -364.37,131.43l0 -648.01 786.37 0 0 -69.15 -862.44 0 2.3 818.61 62.24 0c84.58,-110.67 205.25,-166.04 362.06,-166.04 130.67,0 233.66,38.83 309.01,116.5 75.31,77.61 112.99,183.28 112.99,317.03 0,139.89 -37.68,249.85 -112.99,329.77 -75.35,84.53 -182.18,126.82 -320.54,126.82 -238.27,0 -369.7,-126.82 -394.31,-380.47l-73.82 0zm2331.42 -1254.44l-451.98 0 0 1657.98 78.38 0 0 -765.61 366.68 0c116.82,0 202.12,-5.38 255.95,-16.14 93.76,-18.4 168.35,-55.31 223.66,-110.68 83.04,-84.53 124.51,-193.66 124.51,-327.46 0,-292.1 -199.05,-438.09 -597.2,-438.09zm-55.37 69.15c121.44,0 209.82,4.62 265.18,13.84 204.49,32.3 306.71,148.36 306.71,348.23 0,176.75 -63.06,292.81 -189.11,348.17 -64.54,29.22 -192.9,43.83 -385.08,43.83l-315.93 0 0 -754.07 318.23 0zm929.34 1588.83l69.15 0 0 -1561.14 620.33 1164.52 46.14 0 599.51 -1164.52 0 1561.14 69.2 0 0 -1657.98 -108.36 0 -581.11 1166.78 -604.18 -1166.78 -110.68 0 0 1657.98zm2280.61 -562.66l613.41 0 0 -64.59 -613.41 0 0 64.59zm1667.26 -583.41l267.55 -306.71 2.3 1452.78 76.07 0 0 -1565.76 -76.07 0 -2.3 -2.31 -267.55 318.24 0 103.76zm927.04 362.01c0,216.79 31.52,396.67 94.58,539.64 86.07,192.13 224.42,288.25 415.07,288.25 193.67,0 332.85,-95.35 417.38,-285.94 63.05,-142.97 94.52,-323.62 94.52,-541.95 0,-216.74 -31.47,-396.62 -94.52,-539.59 -86.07,-192.13 -225.2,-288.25 -417.38,-288.25 -190.65,0 -329,96.12 -415.07,288.25 -63.06,142.97 -94.58,322.85 -94.58,539.59zm78.43 0c0,-195.2 24.61,-357.4 73.76,-486.53 70.75,-181.42 190.65,-272.1 359.77,-272.1 167.57,0 287.48,91.45 359.7,274.41 47.68,122.98 71.51,284.4 71.51,484.22 0,201.41 -23.83,363.61 -71.51,486.58 -72.22,182.96 -192.13,274.41 -359.7,274.41 -167.58,0 -287.48,-91.45 -359.77,-274.41 -49.15,-129.13 -73.76,-291.32 -73.76,-486.58zm295.17 292.86l315.93 -525.74 -55.37 -34.61 -315.93 525.8 55.37 34.55zm1978.58 -1166.78l-451.98 0 0 1657.98 78.37 0 0 -765.61 366.69 0c116.82,0 202.12,-5.38 255.95,-16.14 93.76,-18.4 168.34,-55.31 223.65,-110.68 83.05,-84.53 124.52,-193.66 124.52,-327.46 0,-292.1 -199.05,-438.09 -597.2,-438.09zm-55.37 69.15c121.44,0 209.82,4.62 265.18,13.84 204.49,32.3 306.7,148.36 306.7,348.23 0,176.75 -63.05,292.81 -189.1,348.17 -64.54,29.22 -192.9,43.83 -385.09,43.83l-315.93 0 0 -754.07 318.24 0zm929.34 1588.83l69.15 0 0 -1561.14 620.33 1164.52 46.14 0 599.51 -1164.52 0 1561.14 69.2 0 0 -1657.98 -108.37 0 -581.11 1166.78 -604.18 -1166.78 -110.67 0 0 1657.98z"/>
  </g>
  <path class="fil1" d="M10403.98 15529.72c1885.18,0 3413.47,-1558.84 3413.47,-3481.78 0,-1922.89 -1528.29,-3481.73 -3413.47,-3481.73 -1885.27,0 -3413.51,1558.84 -3413.51,3481.73 0,1922.94 1528.24,3481.78 3413.51,3481.78z"/>
  <path class="fil2" d="M11135.44 12701.7c-1708.99,0 -3120.47,-1261.71 -3370.25,-2906.67 -483.92,591.24 -774.72,1347.74 -774.72,2172.59 0,1891.89 1528.24,3425.57 3413.51,3425.57 1885.18,0 3413.47,-1533.68 3413.47,-3425.57 0,-176.85 -17.53,-349.22 -43.27,-518.89 -626.05,764.84 -1575.47,1252.97 -2638.74,1252.97z"/>
  <path class="fil3" d="M12859.37 13208.54c-1262.73,0 -1262.73,477.87 -2525.42,477.87 -1263.09,0 -1263.09,-477.87 -2526.23,-477.87 -1262.65,0 -1262.65,477.87 -2525.29,477.87 -1262.37,0 -1262.37,-477.87 -2524.73,-477.87l396.41 442.78c835.48,933.4 2042.56,1468.8 3311.42,1468.8l7740.32 0c1268.82,0 2475.9,-535.4 3311.41,-1468.8l396.37 -442.78c-1263.54,0 -1263.54,477.87 -2527.13,477.87 -1263.58,0 -1263.58,-477.87 -2527.13,-477.87z"/>
  <path class="fil1" d="M15386.5 13686.41c-1263.58,0 -1263.58,-477.87 -2527.17,-477.87 -1262.69,0 -1262.69,477.87 -2525.42,477.87 -1263.09,0 -1263.09,-477.87 -2526.19,-477.87 -1262.69,0 -1262.69,477.87 -2525.34,477.87 -1262.32,0 -1262.32,-477.87 -2524.68,-477.87l1261.92 1194.54c315.72,119.54 631.32,239.12 1262.81,239.12 1262.64,0 1262.64,-477.87 2525.29,-477.87 1263.14,0 1263.14,477.87 2526.23,477.87 1262.69,0 1262.69,-477.87 2525.42,-477.87 1263.59,0 1263.59,477.87 2527.13,477.87 631.73,0 947.62,-119.42 1263.51,-238.92l1263.62 -1194.74c-1263.54,0 -1263.54,477.87 -2527.13,477.87z"/>
  <path class="fil4" d="M6048.57 7337.35c-344.98,0 -656.37,135.14 -890.83,351.59 -129.76,-57.03 -272.54,-89.92 -423.46,-89.92 -470.8,0 -869.3,308.08 -1003.3,732.76 -49.11,155.66 72.8,314.05 236.67,314.05l3120.21 0c160.28,0 276.22,-150.42 238.96,-305.63 -138.25,-575.27 -658.12,-1002.85 -1278.25,-1002.85z"/>
  <path class="fil4" d="M12847.81 10913.78c344.97,0 656.32,135.15 890.83,351.6 129.75,-56.99 272.5,-89.88 423.41,-89.88 470.81,0 869.35,308.04 1003.31,732.72 49.14,155.66 -72.81,314.05 -236.67,314.05l-3120.18 0c-160.31,0 -276.26,-150.43 -238.96,-305.63 138.26,-575.23 658.09,-1002.86 1278.26,-1002.86z"/>
  <path class="fil4" d="M15405.05 13891.25c-679.98,0 -1024.06,-129.75 -1356.86,-255.05 -304.04,-114.6 -591.28,-222.86 -1179.51,-222.86 -587.97,0 -874.97,108.26 -1178.81,222.86 -332.55,125.3 -676.38,255.05 -1355.88,255.05 -679.73,0 -1023.52,-129.75 -1356.36,-255.05 -304.04,-114.6 -591.04,-222.86 -1179.27,-222.86 -587.73,0 -874.77,108.26 -1178.56,222.86 -332.56,125.3 -676.39,255.05 -1355.84,255.05 -679.25,0 -1023.08,-129.75 -1355.63,-255.05 -303.8,-114.6 -590.59,-222.86 -1178.33,-222.86 -135.63,0 -245.37,-106.88 -245.37,-238.92 0,-132.08 109.74,-238.95 245.37,-238.95 679.21,0 1023.04,129.75 1355.64,255.05 303.75,114.56 590.59,222.82 1178.32,222.82 587.73,0 874.73,-108.26 1178.57,-222.82 332.55,-125.3 676.38,-255.05 1355.87,-255.05 679.7,0 1023.78,129.75 1356.58,255.05 303.79,114.56 591.08,222.82 1179.01,222.82 587.74,0 874.74,-108.26 1178.57,-222.82 332.6,-125.3 676.59,-255.05 1356.12,-255.05 679.99,0 1024.06,129.75 1356.82,255.05 304.04,114.56 591.33,222.82 1179.55,222.82 588.18,0 875.47,-108.26 1179.51,-222.82 332.8,-125.3 676.83,-255.05 1356.81,-255.05 135.64,0 245.38,106.87 245.38,238.95 0,132.04 -109.74,238.92 -245.38,238.92 -588.22,0 -875.46,108.26 -1179.5,222.86 -332.8,125.3 -676.88,255.05 -1356.82,255.05z"/>
  <path class="fil1" d="M10333.01 7544.68c-134.94,0 -244.1,-110.84 -244.1,-247.82l0 -1486.73c0,-136.99 109.16,-247.83 244.1,-247.83 134.95,0 244.11,110.84 244.11,247.83l0 1486.73c0,136.98 -109.16,247.82 -244.11,247.82z"/>
  <path class="fil1" d="M13612.32 8923.72c-62.47,0 -124.9,-24.18 -172.57,-72.59 -95.36,-96.79 -95.36,-253.63 0,-350.37l1035.74 -1051.43c95.31,-96.79 249.82,-96.79 345.14,0 95.31,96.78 95.35,253.62 0,350.37l-1035.74 1051.43c-47.68,48.41 -110.15,72.59 -172.57,72.59z"/>
  <path class="fil1" d="M8612.23 7910.82c-96.5,0 -188.43,-57.89 -227.69,-153.78l-188.66 -460.26c-52.01,-127.02 7.68,-272.75 133.31,-325.53 125.13,-52.33 270.04,7.8 322.01,134.78l188.67 460.31c52,126.97 -7.68,272.7 -133.31,325.48 -30.81,12.91 -62.84,19 -94.33,19z"/>
  <path class="fil1" d="M14729.85 10472.64c-96.5,0 -188.42,-57.89 -227.68,-153.78 -52.01,-126.97 7.72,-272.95 133.35,-325.53l455.32 -190.7c125.38,-52.58 270.01,7.76 322.01,134.77 51.97,126.98 -7.72,272.95 -133.35,325.49l-455.32 190.75c-30.8,12.91 -62.79,19 -94.33,19z"/>
  <path class="fil1" d="M14286.99 15165.63c860.6,0 1689.78,-261.47 2397.78,-729.46 -299.7,117.58 -615.43,228.79 -1212.96,228.79 -1268.04,0 -1268.04,-500.63 -2536.12,-500.63 -1267.19,0 -1267.19,500.63 -2534.37,500.63 -1267.59,0 -1267.59,-500.63 -2535.18,-500.63 -1267.14,0 -1267.14,500.63 -2534.24,500.63 -594.92,0 -910.24,-110.47 -1208.76,-227.6 707.64,467.25 1536.17,728.27 2396.07,728.27l2166.68 0 1717.11 500.63 1472.02 -500.63 2411.97 0z"/>
  <path class="fil4" d="M15314.52 14983.54c-676.96,0 -1019.48,-129.71 -1350.77,-255.01 -302.65,-114.6 -588.67,-222.87 -1174.24,-222.87 -585.32,0 -871.06,108.27 -1173.54,222.87 -331.09,125.3 -673.37,255.01 -1349.79,255.01 -676.68,0 -1018.95,-129.71 -1350.28,-255.01 -302.69,-114.6 -588.43,-222.87 -1174,-222.87 -585.11,0 -870.85,108.27 -1173.3,222.87 -331.08,125.3 -673.36,255.01 -1349.78,255.01 -675.74,0 -1017.77,-129.51 -1348.61,-254.77 -125.95,-47.64 -188.91,-186.21 -140.25,-309.43 48.66,-123.18 189.4,-184.58 315.31,-136.74l1.19 0.49c302.48,114.56 587.97,222.57 1172.36,222.57 585.07,0 870.85,-108.26 1173.29,-222.86 331.09,-125.26 673.37,-255.01 1349.79,-255.01 676.72,0 1019.24,129.75 1350.53,255.01 302.4,114.6 588.42,222.86 1173.75,222.86 585.07,0 870.85,-108.26 1173.29,-222.86 331.09,-125.26 673.57,-255.01 1350.04,-255.01 676.96,0 1019.44,129.75 1350.77,255.01 302.65,114.6 588.63,222.86 1174.24,222.86 585.81,0 871.54,-108.26 1174.23,-222.86 126.16,-47.59 267.15,13.32 316.05,136.54 48.66,123.18 -13.85,261.55 -139.51,309.19 -331.33,125.3 -673.86,255.01 -1350.77,255.01z"/>
  <path class="fil4" d="M10336.16 15939.33c-684.23,0 -1030.35,-129.71 -1365.4,-255.06 -306.08,-114.55 -595,-222.82 -1187.14,-222.82 -136.54,0 -247.01,-106.87 -247.01,-238.95 0,-132.09 110.47,-238.96 247.01,-238.96 684.27,0 1030.59,129.75 1365.6,255.05 305.83,114.6 595.08,222.86 1186.94,222.86 591.65,0 880.58,-108.26 1186.45,-222.86 334.76,-125.3 681.09,-255.05 1365.15,-255.05 136.54,0 246.97,106.87 246.97,238.96 0,132.08 -110.43,238.95 -246.97,238.95 -591.9,0 -880.82,108.27 -1186.69,222.82 -334.77,125.35 -680.84,255.06 -1364.91,255.06z"/>
  <path class="fil1" d="M5695.26 12252.79l-1464.59 0c-134.9,0 -244.06,-110.84 -244.06,-247.82 0,-136.99 109.16,-247.79 244.06,-247.79l1464.59 0c134.9,0 244.06,110.8 244.06,247.79 0,136.98 -109.16,247.82 -244.06,247.82z"/>
  <path class="fil1" d="M6078.07 10472.64c-31.54,0 -63.53,-6.09 -94.34,-18.96l-455.32 -190.75c-125.63,-52.58 -185.32,-198.51 -133.31,-325.48 51.97,-127.02 197.04,-187.36 321.98,-134.78l455.32 190.7c125.63,52.58 185.31,198.56 133.31,325.53 -39.18,95.85 -131.15,153.74 -227.64,153.74z"/>
 </g>
</svg>
