<?xml version="1.0" encoding="UTF-8"?>
<!DOCTYPE svg PUBLIC "-//W3C//DTD SVG 1.1//EN" "http://www.w3.org/Graphics/SVG/1.1/DTD/svg11.dtd">
<!-- Creator: CorelDRAW 2018 -->
<svg xmlns="http://www.w3.org/2000/svg" xml:space="preserve" width="210mm" height="297mm" version="1.1" style="shape-rendering:geometricPrecision; text-rendering:geometricPrecision; image-rendering:optimizeQuality; fill-rule:evenodd; clip-rule:evenodd"
viewBox="0 0 21000 29700"
 xmlns:xlink="http://www.w3.org/1999/xlink">
 <defs>
  <style type="text/css">
   <![CDATA[
    .fil0 {fill:#114BC5;fill-rule:nonzero;fill-opacity:0.501961}
    .fil1 {fill:#1A2125;fill-rule:nonzero;fill-opacity:0.501961}
    .fil2 {fill:#3D474B;fill-rule:nonzero;fill-opacity:0.501961}
    .fil8 {fill:#E0DCD8;fill-rule:nonzero;fill-opacity:0.501961}
    .fil3 {fill:#EECA1D;fill-rule:nonzero;fill-opacity:0.501961}
    .fil5 {fill:#F0B291;fill-rule:nonzero;fill-opacity:0.501961}
    .fil7 {fill:#F5F3EF;fill-rule:nonzero;fill-opacity:0.501961}
    .fil9 {fill:#F98213;fill-rule:nonzero;fill-opacity:0.501961}
    .fil6 {fill:#F9C7A7;fill-rule:nonzero;fill-opacity:0.501961}
    .fil4 {fill:#FFDE40;fill-rule:nonzero;fill-opacity:0.501961}
   ]]>
  </style>
 </defs>
 <g id="Layer_x0020_1">
  <metadata id="CorelCorpID_0Corel-Layer"/>
  <g id="_1163309776">
   <path class="fil0" d="M16770.18 13274.42c0,3499.92 -2837.22,6337.14 -6337.19,6337.14 -3499.92,0 -6337.14,-2837.22 -6337.14,-6337.14 0,-3499.98 2837.22,-6337.19 6337.14,-6337.19 3499.97,0 6337.19,2837.21 6337.19,6337.19z"/>
   <path class="fil1" d="M10848.43 9633.92c-117.12,135.9 -255.18,268.5 -415.38,395.82l-2426.22 1478.7c-1149.24,848.7 -2575.5,-458.34 -2575.5,-458.34 0,0 1551.72,519.18 1551.72,-1319.16 0,-2327.69 1213.92,-2793.71 2824.08,-2763.17 1484.99,28.38 2078.39,1466.51 1041.3,2666.15z"/>
   <path class="fil2" d="M11369.64 8354.07c-159.6,-41.04 -321.48,-74.4 -483.89,-99.78 -147.48,-23.28 -298.8,-35.16 -452.7,-35.16l-0.48 0c-18.6,0 -37.02,0.3 -55.38,1.02 -134.7,2.52 -267.48,13.68 -397.32,34.14 -538.5,84.12 -1073.34,254.51 -1526.82,520.37 -273.42,-864.41 411.78,-1731.41 1354.08,-1806.89 963.78,18.3 1552.25,630.84 1562.51,1386.3z"/>
   <path class="fil3" d="M13555.08 18066.26l0 724.02c-921.36,522.72 -1986.84,821.28 -3122.09,821.28 -669.18,0 -1313.7,-103.68 -1919.28,-295.92 -421.62,-133.74 -824.28,-310.68 -1202.76,-525.36l0 -724.02c0,-1235.58 951.6,-2249.28 2162.4,-2347.02 63.66,-5.16 127.8,-7.74 192.72,-7.74l1533.59 0c181.32,0 357.72,20.16 527.1,58.98 1047.12,239.52 1828.32,1176.6 1828.32,2295.78z"/>
   <path class="fil4" d="M13555.08 18066.26l0 724.02c-921.36,522.72 -1986.84,821.28 -3122.09,821.28 -669.18,0 -1313.7,-103.68 -1919.28,-295.92l0 -1249.38c0,-1300.5 1054.56,-2354.76 2355.36,-2354.76l330.59 0c1301.1,0 2355.42,1054.26 2355.42,2354.76z"/>
   <polygon class="fil3" points="10226.11,16319.6 10640.05,16319.6 10640.05,17996.9 10226.11,17996.9 "/>
   <polygon class="fil3" points="10432.75,16675.46 9372.55,17264.66 9049.99,15764.48 9708.79,15376.52 "/>
   <polygon class="fil3" points="10432.75,16675.46 11493.06,17264.66 11815.56,15764.48 11156.76,15376.52 "/>
   <path class="fil5" d="M11273.1 14804.24l0 1031.16c0,377.52 -248.82,696.6 -591.71,802.56 -78.48,24.36 -162.06,37.5 -248.64,37.5 -463.98,0 -840.06,-376.02 -840.06,-840.06l0 -1031.16 1680.41 0z"/>
   <path class="fil6" d="M11273.1 15770.12l0 65.28c0,377.52 -248.82,696.6 -591.71,802.56 -309.3,-95.04 -541.92,-364.02 -584.82,-693.18 56.1,3.48 112.56,5.16 169.26,5.16 158.88,0 314.82,-12.6 466.56,-37.5 187.07,-30.06 367.79,-78.18 540.71,-142.32z"/>
   <path class="fil6" d="M13555.08 18066.26l0 724.02c-368.82,209.28 -760.74,382.5 -1170.96,515.28l0 -1239.3 1170.96 0z"/>
   <path class="fil6" d="M8089.99 13114.34c0,388.92 -284.1,711.48 -656.16,771.36 -40.68,6.6 -82.56,9.96 -125.22,9.96 -431.64,0 -781.32,-349.62 -781.32,-781.32 0,-431.64 349.68,-781.32 781.32,-781.32 42.66,0 84.54,3.36 125.22,9.96 372.06,59.88 656.16,382.32 656.16,771.36z"/>
   <path class="fil5" d="M8089.99 13114.34c0,388.92 -284.1,711.48 -656.16,771.36 -67.62,-245.76 -103.68,-504.42 -103.68,-771.36 0,-266.94 36.06,-525.6 103.68,-771.36 372.06,59.88 656.16,382.32 656.16,771.36z"/>
   <path class="fil5" d="M7587.97 13114.34c0,154.26 -125.1,279.24 -279.36,279.24 -154.2,0 -279.18,-124.98 -279.18,-279.24 0,-154.26 124.98,-279.24 279.18,-279.24 154.26,0 279.36,124.98 279.36,279.24z"/>
   <path class="fil6" d="M12775.74 13114.34c0,388.92 284.1,711.48 656.16,771.36 40.68,6.6 82.44,9.96 125.16,9.96 431.7,0 781.38,-349.62 781.38,-781.32 0,-431.64 -349.68,-781.32 -781.38,-781.32 -42.72,0 -84.48,3.36 -125.16,9.96 -372.06,59.88 -656.16,382.32 -656.16,771.36z"/>
   <path class="fil5" d="M12775.74 13114.34c0,388.92 284.1,711.48 656.16,771.36 67.62,-245.76 103.68,-504.42 103.68,-771.36 0,-266.94 -36.06,-525.6 -103.68,-771.36 -372.06,59.88 -656.16,382.32 -656.16,771.36z"/>
   <path class="fil5" d="M13836.36 13114.34c0,154.26 -124.98,279.24 -279.3,279.24 -154.26,0 -279.3,-124.98 -279.3,-279.24 0,-154.26 125.04,-279.24 279.3,-279.24 154.32,0 279.3,124.98 279.3,279.24z"/>
   <path class="fil5" d="M13340.04 11592.08l0 1107c0,1446.72 -1056.9,2646.9 -2440.73,2869.56 -4.62,0.78 -9.48,1.56 -14.16,2.34 -147.18,23.52 -298.2,35.16 -452.4,35.16 -1605.48,0 -2907.06,-1301.58 -2907.06,-2907.06l0 -1107c0,-338.1 57.66,-662.94 164.22,-964.8 397.56,-1131.42 1475.7,-1942.62 2742.84,-1942.62l0.24 0c153.96,0 305.22,11.94 452.64,35.16 1390.55,217.38 2454.41,1420.56 2454.41,2872.26z"/>
   <path class="fil6" d="M13340.04 11592.08l0 1107c0,1446.72 -1056.9,2646.9 -2440.73,2869.56 -4.62,0.78 -9.48,1.56 -14.16,2.34 -1390.62,-217.2 -2454.18,-1420.56 -2454.18,-2871.9l0 -1107c0,-1451.7 1063.86,-2654.88 2454.66,-2872.26 1390.55,217.38 2454.41,1420.56 2454.41,2872.26z"/>
   <polygon class="fil2" points="13438.68,10377.32 13438.68,11884.58 7426.63,11884.58 7426.63,11019.32 7452.25,10062.32 7872.37,9401.42 9191.47,8418.5 9883.39,8313.03 10717.63,8185.77 12424.8,8806.46 "/>
   <path class="fil1" d="M9116.77 11884.58l-1244.4 0 0 672.54 -445.74 0 0 -1537.8 25.62 -957 420.12 -660.9 1319.1 -982.92 691.92 -105.47c-594.12,610.67 -852.78,2201.39 -766.62,3571.55z"/>
   <path class="fil7" d="M13467.96 10614.02c0,137.88 -9.9,273.66 -29.28,406.38 -205.14,-1414.38 -1472.58,-2503.08 -3005.93,-2503.08 -165.96,0 -328.74,12.42 -486.96,37.56 -150.84,23.04 -298.26,57.12 -440.76,100.86 -224.34,68.76 -436.92,161.7 -634.74,275.76 -767.7,442.5 -1314.6,1201.44 -1443.66,2087.82 -19.08,-132.48 -28.92,-267.72 -28.92,-405.3 0,-1058.16 590.22,-1984.5 1472.58,-2492.69 198.12,-114 410.7,-207.12 634.74,-275.76 142.74,-43.98 289.92,-77.82 440.76,-101.16 158.22,-25.08 321,-37.44 486.96,-37.44 1676.45,0 3035.21,1301.51 3035.21,2907.05z"/>
   <polygon class="fil2" points="12993,11884.58 13438.68,11884.58 13438.68,12557.12 12993,12557.12 "/>
   <path class="fil6" d="M12563.04 11884.58c0,0 42.78,-1138.14 -319.32,-1733.04l-51.78 1965.78 371.1 -232.74z"/>
   <path class="fil5" d="M8482.03 18066.26l0 1239.3c-410.28,-132.78 -802.08,-306 -1170.96,-515.28l0 -724.02 1170.96 0z"/>
   <path class="fil8" d="M9505.03 7845.57l0 810.17c-224.34,68.76 -436.92,161.7 -634.74,275.76 -767.7,442.5 -1314.6,1201.44 -1443.66,2087.82 -19.08,-132.48 -28.92,-267.72 -28.92,-405.3 0,-1058.16 590.22,-1984.5 1472.58,-2492.69 198.12,-114 410.7,-207.12 634.74,-275.76z"/>
   <path class="fil7" d="M8399.65 12455.6l-679.38 79.02 -55.08 -472.62 672.96 -78.3c42.42,-4.92 72.78,-43.32 67.8,-85.68 -4.92,-42.3 -43.32,-72.66 -85.68,-67.68l-672.9 78.24 -55.02 -472.62 679.5 -79.08c42.36,-4.92 72.66,-43.32 67.86,-85.62 -4.98,-42.36 -43.32,-72.78 -85.68,-67.86l-679.5 79.08 -55.08 -472.62 452.34 -52.62c42.3,-4.92 72.78,-43.2 67.8,-85.68 -4.92,-42.36 -43.32,-72.66 -85.62,-67.74l-452.34 52.62 -50.64 -435.54 90 -10.44c42.36,-4.92 72.66,-43.2 67.74,-85.68 -4.92,-42.3 -43.2,-72.66 -85.68,-67.68l-89.88 10.44 -25.92 -222.72c-4.92,-42.36 -43.26,-72.72 -85.62,-67.74 -42.42,4.92 -72.78,43.2 -67.86,85.62l25.98 222.66 -472.62 55.02 -73.74 -633.18c-4.86,-42.3 -43.2,-72.66 -85.56,-67.74 -42.42,4.98 -72.78,43.26 -67.8,85.68l73.62 633.06 -472.62 54.96 -99.18 -851.7c-4.92,-42.3 -43.2,-72.72 -85.62,-67.8 -42.36,4.92 -72.66,43.32 -67.74,85.68l99.12 851.76 -472.62 54.96 -73.68 -633.12c-4.92,-42.36 -43.32,-72.66 -85.62,-67.8 -42.48,4.92 -72.78,43.26 -67.86,85.62l73.68 633.12 -472.68 55.02 -25.86 -222.78c-4.92,-42.3 -43.32,-72.66 -85.68,-67.68 -42.3,4.92 -72.72,43.2 -67.8,85.62l25.98 222.66 -90 10.44c-42.36,4.98 -72.66,43.32 -67.74,85.68 4.92,42.36 43.2,72.66 85.62,67.8l89.94 -10.44 50.7 435.48 -452.34 52.56c-42.3,4.98 -72.66,43.32 -67.68,85.68 4.92,42.3 43.2,72.66 85.62,67.8l452.22 -52.62 55.02 472.56 -679.5 79.08c-42.36,4.92 -72.66,43.32 -67.86,85.68 4.98,42.42 43.32,72.72 85.68,67.8l679.5 -79.08 54.96 472.68 -672.9 78.24c-42.36,4.98 -72.72,43.26 -67.86,85.68 4.92,42.36 43.32,72.66 85.68,67.74l672.9 -78.3 55.02 472.68 -679.5 79.02c-42.36,4.92 -72.66,43.32 -67.74,85.68 4.92,42.3 43.2,72.66 85.68,67.8l679.38 -79.02 55.08 472.5 -452.34 52.74c-42.3,4.92 -72.66,43.2 -67.68,85.62 4.92,42.36 43.2,72.66 85.62,67.74l452.22 -52.62 50.64 435.54 -89.88 10.5c-42.48,4.92 -72.78,43.2 -67.86,85.62 4.92,42.36 43.32,72.66 85.68,67.74l89.94 -10.44 25.92 222.6c4.98,42.48 43.2,72.78 85.68,67.86 42.3,-4.92 72.66,-43.2 67.74,-85.68l-25.86 -222.66 472.62 -54.9 73.62 633c4.98,42.42 43.32,72.72 85.68,67.8 42.3,-4.92 72.66,-43.2 67.8,-85.62l-73.74 -633.12 472.62 -54.96 99.18 851.7c4.92,42.48 43.32,72.78 85.62,67.86 42.36,-4.98 72.66,-43.32 67.86,-85.68l-99.18 -851.7 472.68 -55.02 73.62 633.06c4.98,42.36 43.32,72.72 85.68,67.86 42.36,-4.92 72.66,-43.32 67.8,-85.68l-73.68 -633.06 472.62 -55.02 25.98 222.72c4.92,42.36 43.2,72.66 85.56,67.74 42.42,-4.92 72.72,-43.2 67.8,-85.68l-25.86 -222.66 89.88 -10.44c42.36,-4.92 72.66,-43.32 67.74,-85.68 -4.86,-42.3 -43.2,-72.66 -85.56,-67.8l-90 10.56 -50.7 -435.54 452.34 -52.62c42.3,-4.92 72.72,-43.32 67.8,-85.62 -4.92,-42.36 -43.32,-72.72 -85.62,-67.86l-452.34 52.74 -54.9 -472.68 679.5 -79.02c42.36,-4.98 72.66,-43.32 67.74,-85.68 -4.98,-42.42 -43.2,-72.78 -85.68,-67.8zm-832.86 96.9l-472.68 55.02 -54.9 -472.68 472.5 -55.02 55.08 472.68zm-1244.4 -1124.28l-54.96 -472.62 472.62 -55.08 54.96 472.68 -472.62 55.02zm490.44 98.46l55.08 472.62 -472.68 54.96 -55.02 -472.68 472.62 -54.9zm-643.86 -80.64l-472.62 54.96 -55.08 -472.56 472.68 -55.02 55.02 472.62zm17.82 153.48l55.08 472.56 -472.68 55.02 -55.02 -472.62 472.62 -54.96zm72.9 626.04l54.9 472.62 -472.62 54.96 -54.96 -472.68 472.68 -54.9zm72.78 626.04l55.02 472.62 -472.68 55.02 -54.9 -472.62 472.56 -55.02zm153.48 -17.82l472.62 -55.08 55.02 472.68 -472.62 55.02 -55.02 -472.62zm-17.88 -153.48l-55.02 -472.56 472.68 -55.08 55.02 472.68 -472.68 54.96zm1025.82 -753.84l-472.62 54.9 -54.96 -472.56 472.62 -55.02 54.96 472.68zm-72.84 -626.16l-472.56 55.02 -55.02 -472.62 472.62 -54.9 54.96 472.5zm-123.54 -1061.46l50.64 435.48 -472.5 55.02 -50.7 -435.54 472.56 -54.96zm-626.04 72.78l50.7 435.54 -472.68 54.96 -50.64 -435.48 472.62 -55.02zm-626.04 72.84l50.7 435.54 -472.68 54.96 -50.64 -435.42 472.62 -55.08zm-1098.78 127.92l472.68 -55.02 50.64 435.54 -472.62 54.9 -50.7 -435.42zm68.64 588.9l472.62 -55.02 54.96 472.62 -472.68 54.96 -54.9 -472.56zm72.84 626.04l472.62 -54.96 54.96 472.56 -472.62 55.02 -54.96 -472.62zm72.78 626.04l472.62 -54.96 55.08 472.68 -472.68 54.9 -55.02 -472.62zm72.84 626.1l472.68 -55.02 55.02 472.62 -472.62 55.08 -55.08 -472.68zm123.54 1061.58l-50.64 -435.54 472.62 -54.96 50.7 435.48 -472.68 55.02zm626.16 -72.84l-50.7 -435.54 472.56 -54.96 50.64 435.42 -472.5 55.08zm625.98 -72.9l-50.64 -435.54 472.62 -54.9 50.7 435.42 -472.68 55.02zm1098.72 -127.86l-472.68 55.02 -50.64 -435.42 472.62 -55.08 50.7 435.48zm-68.52 -588.96l-472.62 55.08 -54.96 -472.68 472.56 -54.9 55.02 472.5z"/>
   <path class="fil9" d="M7975.87 10243.7c-89.34,-133.62 -187.5,-258.72 -293.88,-373.56 -489.12,-527.82 -1093.26,-779.58 -1701.18,-708.84 -607.98,70.8 -1138.14,454.44 -1492.8,1080.48 -84.84,149.76 -157.2,309.36 -216.78,476.7 -132.6,372.84 -201.18,783.72 -201.06,1208.64 0,153.66 9.06,309.24 27.24,465.48 91.08,782.04 401.34,1493.58 873.9,2003.64 202.38,218.52 424.56,389.4 658.44,509.94l85.86 86.82c498.54,504.66 827.22,1169.34 925.44,1871.7l22.74 163.86c10.5,74.76 78.78,127.68 153.78,118.98l182.64 -21.36c37.5,-4.32 71.64,-23.7 94.5,-53.64 22.86,-29.94 32.52,-67.92 26.94,-105.24 -118.38,-781.92 46.08,-1577.7 463.32,-2248.32 223.44,-177.42 419.88,-411 580.38,-694.38 342.84,-604.92 481.56,-1368.72 390.6,-2150.88 -70.56,-605.94 -272.82,-1169.7 -580.08,-1630.02zm-1166.82 6082.08c-130.32,-447.72 -347.82,-869.16 -637.08,-1234.98 0.18,0 0.48,0.06 0.72,0.06 164.7,28.62 332.22,33.66 499.86,14.16 156.78,-18.3 308.58,-57.36 453.48,-116.28 0.18,0 0.42,-0.06 0.54,-0.18 -191.04,421.8 -299.04,875.52 -317.52,1337.22zm1341.3 -4320.3c15.12,161.16 19.38,320.94 12.9,477.54 -2.04,52.68 -5.46,104.88 -10.08,156.66 -14.28,167.82 -41.1,331.26 -80.04,488.34 -13.2,54.36 -28.02,107.94 -44.16,160.74 -45.84,149.52 -103.14,292.62 -171.36,427.32 -6.06,12.12 -12.36,24.18 -18.66,36.12 -11.82,22.5 -23.82,44.76 -36.36,66.66 -19.26,34.32 -39.42,67.56 -59.94,100.02 -4.86,7.56 -9.6,14.88 -14.34,22.26 -123.3,189.24 -266.46,346.2 -424.5,467.22 -46.8,36.06 -94.86,68.7 -144.18,98.16 -144,86.04 -298.08,144.54 -459,172.86 -25.26,4.62 -50.64,8.34 -76.44,11.34 -25.68,3 -51.24,5.22 -76.92,6.48 -163.26,9.42 -326.52,-12.18 -486.3,-63 -54.96,-17.22 -109.2,-37.98 -162.78,-62.1 -181.8,-81.54 -357.24,-201.6 -520.74,-357.6 -6.18,-6.06 -12.6,-12.06 -18.78,-18.24 -27.42,-26.82 -54.66,-54.66 -81.42,-83.52 -17.1,-18.48 -34.02,-37.38 -50.64,-56.58 -9.06,-10.26 -17.94,-20.64 -26.64,-31.2 -97.38,-115.32 -185.88,-241.38 -264.72,-376.32 -28.02,-47.58 -54.72,-96.54 -80.16,-146.16 -73.92,-144.12 -137.46,-297.06 -189.96,-457.02 -16.62,-49.32 -31.62,-99.48 -45.78,-150.06 -42.24,-151.08 -74.76,-307.5 -96.9,-467.82 -3.96,-27.6 -7.56,-55.44 -10.8,-83.34 -2.76,-23.22 -5.22,-46.8 -7.32,-70.02 -15.78,-161.16 -20.52,-320.64 -14.7,-477.36 1.86,-52.56 4.92,-104.82 9.18,-156.66 13.8,-167.34 39.84,-330.66 77.64,-488.04 13.2,-54.36 27.72,-107.76 43.68,-160.56 46.5,-154.62 105.06,-302.52 175.56,-441.36 3.48,-7.26 7.32,-14.52 11.16,-21.66 14.04,-27.66 28.68,-54.48 43.8,-81.24 12.24,-21.6 24.6,-42.6 37.38,-63.24 4.5,-7.56 8.94,-14.94 13.62,-22.2 7.74,-12.48 15.48,-24.6 23.34,-36.84 123.42,-189.3 266.52,-346.26 424.74,-467.4 46.62,-35.82 94.68,-68.52 144,-97.98 144,-85.98 298.02,-144.54 458.88,-172.92 25.38,-4.56 50.76,-8.34 76.56,-11.34 25.68,-3 51.24,-5.22 76.92,-6.36 163.2,-9.54 326.64,12 486.42,62.76 54.72,17.34 109.08,38.16 162.66,62.28 181.8,81.6 357.3,201.66 520.74,357.66 8.64,8.1 17.22,16.44 25.68,25.02 1.74,1.62 3.6,3.42 5.4,5.4 23.28,22.86 46.2,46.8 69,71.28 20.94,22.62 41.28,45.36 61.32,69 5.46,6.12 10.86,12.42 16.08,18.78 100.32,118.92 191.4,249.36 272.16,389.16 27.66,47.64 54.06,96.42 79.26,146.1 73.08,144.36 135.96,297.36 187.8,457.26 16.08,49.44 31.08,99.48 45.06,150.18 41.58,151.26 73.44,307.74 95.16,468 3.18,23.22 6.18,46.68 8.88,69.96 3.24,28.08 6.24,55.8 8.64,83.58z"/>
   <path class="fil2" d="M7439.35 18488.18c-5.94,1.2 -11.88,2.58 -18.12,3.54 -94.68,18.42 -190.08,33.42 -286.02,45.06 -51.54,6.48 -103.26,11.94 -155.04,16.32 -16.26,1.2 -32.58,2.82 -49.14,3.84 -85.08,-56.4 -168.6,-114.84 -250.56,-175.38l-145.14 -1247.52c-11.16,-93.6 35.64,-180.78 111.72,-226.02 27.12,-16.26 58.2,-27.12 91.56,-31.02l276.24 -32.34c31.62,-3.72 62.58,-0.48 91.38,7.74 86.94,25.08 154.68,100.38 165.78,195.78l52.74 453.72 114.6 986.28z"/>
   <path class="fil5" d="M7812.31 19046.06c-294.84,-134.16 -577.56,-290.16 -846.3,-466.08 -199.5,-130.56 -391.14,-272.16 -573.96,-424.2 -20.76,-327.18 205.86,-626.22 536.46,-688.02 85.38,-16.08 169.86,-14.7 250.08,1.26 88.2,17.34 171.06,52.5 243.9,102.72 139.26,95.4 242.16,243.66 275.76,422.64l135.84 723.66c21.24,113.58 12.12,225.6 -21.78,328.02z"/>
   <path class="fil6" d="M7812.31 19046.06c-294.84,-134.16 -577.56,-290.16 -846.3,-466.08l-81.3 -432.96c-51.12,-272.7 73.56,-537.48 293.88,-678 88.2,17.34 171.06,52.5 243.9,102.72 139.26,95.4 242.16,243.66 275.76,422.64l135.84 723.66c21.24,113.58 12.12,225.6 -21.78,328.02z"/>
  </g>
 </g>
</svg>
