<?xml version="1.0" encoding="utf-8"?>
<!-- Generator: Adobe Illustrator 16.0.0, SVG Export Plug-In . SVG Version: 6.00 Build 0)  -->
<!DOCTYPE svg PUBLIC "-//W3C//DTD SVG 1.1//EN" "http://www.w3.org/Graphics/SVG/1.1/DTD/svg11.dtd">
<svg version="1.1" id="Layer_1" xmlns="http://www.w3.org/2000/svg" xmlns:xlink="http://www.w3.org/1999/xlink" x="0px" y="0px"
	 width="69.799px" height="48.885px" viewBox="0 0 69.799 48.885" enable-background="new 0 0 69.799 48.885" xml:space="preserve">
<g id="Layer_x0020_1">
	<rect x="0.841" y="0.801" fill="#FEFEFE" stroke="#FEFEFE" width="68.118" height="47.282"/>
	<rect x="0.841" y="0.801" fill="#FEFEFE" stroke="#0D30B2" width="68.118" height="47.282"/>
	<path fill="#0D30B2" d="M9.656,31.655c0,0-6.01,2.805-6.01,12.021h18.031c0,0,1.202-4.808,5.609-8.014c0,0-0.801-2.004-4.007-4.007
		C23.28,31.655,16.868,37.665,9.656,31.655z"/>
	<path fill="#0D30B2" d="M22.077,48.083h26.045c0,0,0-7.613-6.411-11.619c0,0-5.609,5.609-13.623,0
		C28.088,36.464,22.478,38.868,22.077,48.083z"/>
	<path fill="#0D30B2" d="M46.52,31.655c0,0,6.411,6.01,14.024,0c0,0,6.011,3.605,6.011,12.021H48.122c0,0-0.801-4.407-5.209-8.014
		C42.913,35.662,43.315,33.658,46.52,31.655z"/>
	<circle fill="#0D30B2" cx="16.468" cy="24.042" r="7.613"/>
	<circle fill="#0D30B2" cx="34.9" cy="28.85" r="7.614"/>
	<circle fill="#0D30B2" cx="53.331" cy="24.042" r="7.613"/>
</g>
</svg>
