<?xml version="1.0" encoding="utf-8"?>
<!-- Generator: Adobe Illustrator 16.0.0, SVG Export Plug-In . SVG Version: 6.00 Build 0)  -->
<!DOCTYPE svg PUBLIC "-//W3C//DTD SVG 1.1//EN" "http://www.w3.org/Graphics/SVG/1.1/DTD/svg11.dtd">
<svg version="1.1" id="Layer_1" xmlns="http://www.w3.org/2000/svg" xmlns:xlink="http://www.w3.org/1999/xlink" x="0px" y="0px"
	 width="68.199px" height="46.981px" viewBox="0 0 68.199 46.981" enable-background="new 0 0 68.199 46.981" xml:space="preserve">
<g id="Layer_x0020_1">
	<g id="_614519416">
		<polygon fill="#0F33B8" points="1.1,46.208 67.1,46.208 67.1,0.773 1.1,0.773 		"/>
		<polygon fill="#FFFFFF" points="15.209,37.361 15.209,9.622 3.251,9.622 3.251,37.361 		"/>
		<polygon fill="#FFFFFF" points="52.99,37.361 65.187,37.361 65.187,9.622 52.99,9.622 		"/>
		<polygon fill="#FFFFFF" points="35.056,44.295 65.187,44.295 65.187,39.513 35.056,39.513 		"/>
		<polygon fill="#FFFFFF" points="3.251,44.295 33.143,44.295 33.143,39.513 3.251,39.513 		"/>
		<path fill="#0F33B8" d="M15.209,37.361c0.717-0.956,0.238-21.522,0.238-24.152c0-1.436,0.239-2.87-0.238-3.587V37.361z"/>
		<path fill="#0F33B8" d="M52.99,37.361V9.622l-0.239,1.434c0,0.479,0,1.196,0,1.674v21.283
			C52.751,35.208,52.512,36.643,52.99,37.361z"/>
		<path fill="#0F33B8" d="M50.839,22.534H35.056c1.196,0.717,10.283,0.239,11.719,0.239h3.107
			C51.556,22.534,50.122,22.773,50.839,22.534z"/>
		<path fill="#0F33B8" d="M33.143,24.447c-0.478-0.238-0.239-0.238-1.435-0.238H21.426c-0.718,0-1.435,0-2.152,0
			c0,0-0.717,0-0.956,0c-1.674,0.238-0.239,0-0.957,0.238H33.143z"/>
		<path fill="#0F33B8" d="M50.839,24.447c-0.957-0.478-2.631-0.238-3.587-0.238H36.969c-1.674,0-1.195,0-1.913,0.238H50.839z"/>
		<path fill="#0F33B8" d="M33.143,22.534H17.361c0.957,0.479,2.63,0.239,3.586,0.239h8.369
			C30.753,22.773,32.426,23.013,33.143,22.534z"/>
		<path fill="#0F33B8" d="M50.839,22.534c0.478-1.196,0.238-8.131,0.238-9.804c0-0.957,0.239-2.392-0.477-3.108L50.839,22.534z"/>
		<path fill="#0F33B8" d="M17.361,22.534l0.239-12.913l-0.239,12.195C17.361,22.773,17.361,22.295,17.361,22.534z"/>
		<path fill="#757575" d="M50.601,37.361l0.238-12.914L50.601,37.361z"/>
		<rect x="17.275" y="9.575" fill="#FFFFFF" width="15.807" height="12.868"/>
		<rect x="35.007" y="9.655" fill="#FFFFFF" width="15.808" height="12.808"/>
		<rect x="17.275" y="24.414" fill="#FFFFFF" width="15.807" height="12.912"/>
		<rect x="34.992" y="24.418" fill="#FFFFFF" width="15.883" height="12.928"/>
	</g>
</g>
</svg>
