<?xml version="1.0" encoding="UTF-8"?>
<!DOCTYPE svg PUBLIC "-//W3C//DTD SVG 1.1//EN" "http://www.w3.org/Graphics/SVG/1.1/DTD/svg11.dtd">
<!-- Creator: CorelDRAW 2018 -->
<svg xmlns="http://www.w3.org/2000/svg" xml:space="preserve" width="210mm" height="297mm" version="1.1" style="shape-rendering:geometricPrecision; text-rendering:geometricPrecision; image-rendering:optimizeQuality; fill-rule:evenodd; clip-rule:evenodd"
viewBox="0 0 21000 29700"
 xmlns:xlink="http://www.w3.org/1999/xlink">
 <defs>
  <style type="text/css">
   <![CDATA[
    .fil3 {fill:#0F33B8}
    .fil0 {fill:#3C58C3}
    .fil2 {fill:#6AD972}
    .fil1 {fill:#E6E6E6}
   ]]>
  </style>
 </defs>
 <g id="Layer_x0020_1">
  <metadata id="CorelCorpID_0Corel-Layer"/>
  <polygon class="fil0" points="5343.98,6639.72 15398.14,6639.72 15398.14,7454.64 5343.98,7454.64 "/>
  <path class="fil1" d="M6672.2 7645.12l7604.08 21.18 -77.54 3010.36c88.34,803.02 -1509.56,1959.82 -2814.68,2762.78 -577.98,336.08 -515.76,672.18 -77.7,1008.28 931.96,833.44 2615.36,1508.14 2795.9,2500.34l121.1 3386.52 -7517.58 18.52 -17.74 -3225.2c482.68,-1159.84 1947.2,-2103.22 3008.44,-2659.8 383.22,-297.14 349.48,-574.44 139.82,-843.36 -1318.92,-563.56 -2347.08,-1482.5 -3158.04,-2666.96l-6.06 -3312.66z"/>
  <path class="fil2" d="M7810.58 9222.32c945.46,-1086.58 2510.02,65.28 3852.34,238.14 756.78,99.2 1371.96,264.54 1705.34,561.32 643.72,1399.4 -2176.36,1950.86 -2677.18,2942.16l13.3 2961.48c177.88,775.72 754.38,1065.68 1835.42,740.68 610.94,-101.96 956.92,224 943.4,816.96l-13.02 2746.2 -6085.02 10.84 37.94 -1011.92c31.04,-1036.98 467.44,-1357.74 1345.12,-898.94 1061.42,199.82 1668.58,-416.9 1477.46,-1907.06l49.78 -3389.42c-529.72,-804.28 -1895.2,-1106.4 -2834.14,-2302.3 -73.04,-606.08 -43.92,-1156.4 349.26,-1508.14z"/>
  <polygon class="fil0" points="5343.98,21155.54 15398.14,21155.54 15398.14,20340.62 5343.98,20340.62 "/>
  <rect class="fil3" x="4137.43" y="6200.5" width="12615.34" height="592.68" rx="296.34" ry="296.34"/>
  <path class="fil3" d="M4433.78 21594.76l12022.66 0c163,0 296.34,-133.34 296.34,-296.34l0 0c0,-163 -133.34,-296.34 -296.34,-296.34l-12022.66 0c-163,0 -296.34,133.34 -296.34,296.34l0 0c0,163 133.34,296.34 296.34,296.34z"/>
 </g>
</svg>
